<svg xmlns="http://www.w3.org/2000/svg"  viewBox="0 0 50 50" width="50px" height="50px"><path d="M 1 9 C 0.448 9 0 9.448 0 10 L 0 24.115234 C 0 30.276234 4.6829844 35.631469 10.833984 35.980469 C 16.730984 36.314469 21.747875 32.176391 22.796875 26.650391 C 23.366875 27.420391 23.94625 28.135969 24.53125 28.792969 L 21.001953 43.771484 C 20.932953 44.069484 21.002406 44.380094 21.191406 44.621094 C 21.382406 44.859094 21.670563 45 21.976562 45 L 27.095703 45 C 27.559703 45 27.959406 44.687328 28.066406 44.236328 C 28.687406 41.615328 29.660969 37.508156 30.542969 33.785156 L 31.453125 34.3125 C 33.618125 35.4335 35.815 36 38 36 C 45.192 36 50.926 29.641 49.875 22.25 C 49.179 17.354 45.414078 13.318344 40.580078 12.277344 C 34.951078 11.064344 29.525359 13.949141 27.193359 18.744141 C 27.193359 18.744141 26.934562 19.318578 26.726562 19.892578 C 25.076563 17.046578 24.107609 14.094078 23.599609 11.955078 C 23.414609 11.175078 23.137469 9.762875 23.105469 9.671875 C 22.966469 9.268875 22.589109 9 22.162109 9 L 17 9 C 16.448 9 16 9.448 16 10 L 16 24.300781 C 16 26.649781 14.287219 28.750516 11.949219 28.978516 C 9.2672187 29.240516 7 27.13 7 24.5 L 7 10 C 7 9.448 6.552 9 6 9 L 1 9 z M 38 19 C 40.757 19 43 21.243 43 24 C 43 26.757 40.757 29 38 29 C 35.775 29 33.713531 27.658281 32.269531 26.488281 C 32.796531 24.263281 33.15025 22.773047 33.15625 22.748047 C 33.72425 20.541047 35.717 19 38 19 z"/></svg>